<svg xmlns="http://www.w3.org/2000/svg" xmlns:xlink="http://www.w3.org/1999/xlink" viewBox="0 0 243.55 43.05"><defs><style>.cls-1{fill:none;}.cls-2{clip-path:url(#clip-path);}.cls-3{fill:#ed1944;}.cls-4{fill:#253d98;}</style><clipPath id="clip-path" transform="translate(0 0)"><rect class="cls-1" width="243.55" height="43.05"/></clipPath></defs><title>Asset 1</title><g id="Layer_2" data-name="Layer 2"><g id="Layer_1-2" data-name="Layer 1"><g class="cls-2"><path class="cls-3" d="M12.76,23.92c1.17,0,1.54,1,1.54,1.93a11.26,11.26,0,0,1-1,5.47c-.82,1.47-2.34,2.41-4.87,2.41h0A4.77,4.77,0,0,1,4,31.48c-.56-1.07-.74-2-.74-4.88V18.77c-.08-1.06.08-.92-1-1a3.34,3.34,0,0,1-1.67-.29A1.32,1.32,0,0,1,0,16.22a1.61,1.61,0,0,1,1.58-1.5H2.82c.32,0,.37,0,.39-.09a1.93,1.93,0,0,0,.08-.82v-2.9a2.67,2.67,0,0,1,.28-1.39A1.4,1.4,0,0,1,4.9,8.88a1.37,1.37,0,0,1,1.31.66,2.6,2.6,0,0,1,.27,1.34v3.5c0,.26,0,.31,0,.31a.92.92,0,0,0,.34,0h3.54a2.48,2.48,0,0,1,1.6.39,1.41,1.41,0,0,1,.44,1.15A1.37,1.37,0,0,1,12,17.33a2.65,2.65,0,0,1-1.7.43H7.17a1.52,1.52,0,0,0-.63.07s-.06.09-.06.41v8.57c0,3.18.61,3.94,2.35,4,1.94,0,2.26-1.58,2.28-3.28V26.38a3.55,3.55,0,0,1,.36-1.85,1.41,1.41,0,0,1,1.29-.61m22.71-9.17c-1,0-2.24.4-3.43.39s-2.45-.38-3.36-.39a1.4,1.4,0,0,0-1.44,1.4,1.46,1.46,0,0,0,1.4,1.54,2,2,0,0,0,.95-.2,1.16,1.16,0,0,1,.43-.11c.13,0,.29.08.3.51a5.57,5.57,0,0,1-.52,1.65L26.09,29.92l-4.2-11.26a4.7,4.7,0,0,1-.28-.95c0-.26.08-.32.35-.33a3.14,3.14,0,0,1,.75.12,2,2,0,0,0,.8.19A1.6,1.6,0,0,0,25,16.15c0-.81-.66-1.4-1.78-1.4s-2.36.4-3.55.39-2.09-.38-3.25-.39a1.79,1.79,0,0,0-1.25.4,1.33,1.33,0,0,0-.4,1c0,.89.52,1.54,1.19,1.54a1.7,1.7,0,0,0,.81-.2,1.75,1.75,0,0,1,.57-.11c.26,0,.6.26,1.13,1.62l4.92,12.7c.42,1.07,1.06,2.2,2.51,2.2h0c1.5,0,2.15-1.06,2.6-2.19l4.81-12.32c.34-.84.54-1.38.68-1.69s.21-.32.24-.32a2.28,2.28,0,0,1,.61.12,2.13,2.13,0,0,0,.81.19,1.55,1.55,0,0,0,1.47-1.54,1.47,1.47,0,0,0-1.65-1.4M52,17a11.44,11.44,0,0,1,2.27,7.09c0,5.46-3.09,10-9,10s-8.61-4.65-8.62-9.89,2.81-9.95,8.66-10A8.09,8.09,0,0,1,52,17M45.31,31.25c4.18,0,5.52-3.56,5.54-7.27a9.54,9.54,0,0,0-1.24-4.91,4.61,4.61,0,0,0-4.09-1.95,4.53,4.53,0,0,0-4.29,2.3,9.79,9.79,0,0,0-1.18,4.7c0,3.47,1.31,7.12,5.26,7.13" transform="translate(0 0)"/><path class="cls-4" d="M71.67,5.58c5,5,16,15.92,16,15.91l-16,16a21.52,21.52,0,1,0,0-31.92" transform="translate(0 0)"/><path class="cls-4" d="M80.52,21.67,68.46,33.79a20.75,20.75,0,0,1-3.88-12.11A21.07,21.07,0,0,1,68.44,9.26Z" transform="translate(0 0)"/><polygon class="cls-4" points="129 33.93 122.57 14.36 122.57 33.93 117.79 33.93 117.79 7.89 125.26 7.89 131.58 28.18 137.72 7.89 145.27 7.89 145.27 33.93 140.49 33.93 140.49 14.36 134.1 33.93 129 33.93"/><path class="cls-4" d="M156,34.4c-3.7,0-7-2.16-7-5.64,0-4.6,5.14-6,12.72-6.82v-.36c0-3-1.58-4-3.7-4s-3.7,1-3.81,3.12h-4.63c.36-3.8,3.7-6.6,8.62-6.6s8.47,1.94,8.47,8.47c0,.61-.07,3.2-.07,5a27.42,27.42,0,0,0,.58,6.39h-4.56a16.42,16.42,0,0,1-.36-2.48c-1.37,2.05-3.38,2.95-6.29,2.95m5.89-9.3c-5.53.57-7.76,1.22-7.76,3.37,0,1.4,1.12,2.55,3.34,2.55,3.09,0,4.42-1.79,4.42-4.95Z" transform="translate(0 0)"/><path class="cls-4" d="M171.51,9.36h5v5.25h4V18h-4V28c0,2,.68,2.37,2.44,2.37h1.51v3.55h-3.63c-4.41,0-5.28-1.36-5.28-5.21V18h-2.73V14.61h2.73Z" transform="translate(0 0)"/><path class="cls-4" d="M188.61,17.16a6.25,6.25,0,0,1,5.6-3c4.63,0,6.68,2.83,6.68,7.58V33.93h-5V22.83c0-2.51-.53-4.67-3.34-4.67-3.26,0-4,2.66-4,5.71V33.93h-5v-26h5Z" transform="translate(0 0)"/><path class="cls-4" d="M210,12.49h-5V7.89h5Zm0,21.44h-5V14.61h5Z" transform="translate(0 0)"/><path class="cls-4" d="M214.93,13.53c0-4.88,2.3-5.64,7.15-5.64h1.68v3.67h-1c-2.44,0-2.91.28-2.91,2.11v.94h3.88V18h-3.88V33.93h-4.95V18H212.2V14.61h2.73Z" transform="translate(0 0)"/><path class="cls-4" d="M226.31,40.22V36.41h1.87c1.65,0,2.41,0,3.23-2l.22-.54-7.4-19.25h5.42L234,28.54l4.49-13.93h5l-7.07,18.75c-2.27,6-3.27,6.86-8.09,6.86Z" transform="translate(0 0)"/></g></g></g></svg>